<svg width="1046" height="315" xmlns="http://www.w3.org/2000/svg" xmlns:xlink="http://www.w3.org/1999/xlink" overflow="hidden"><defs><clipPath id="clip0"><rect x="81" y="220" width="1046" height="315"/></clipPath></defs><g clip-path="url(#clip0)" transform="translate(-81 -220)"><path d="M423 377.5C438.283 278.262 497.899 232.42 582 223 662.918 219.186 735.41 294.043 741 377.5 743.6 463.789 662.006 541.891 582 532 501.277 537.584 411.588 469.428 423 377.5Z" fill="#F2CC7D" fill-rule="evenodd"/><path d="M423 377.5C432.341 287.053 514.884 221.256 582 223 648.387 236.575 764.059 295.609 741 377.5 749.025 454.076 647.877 524.856 582 532 482.687 539.32 433.41 482.881 423 377.5Z" stroke="#000000" stroke-width="4" stroke-miterlimit="8" fill="none" fill-rule="evenodd"/><text font-family="Wildy Sans,Wildy Sans_MSFontService,sans-serif" font-weight="400" font-size="117" transform="translate(159.032 368)">.<tspan font-size="117" x="288" y="0">B</tspan><tspan font-size="72" x="331.833" y="0">en</tspan><tspan font-size="117" x="393.5" y="0">V</tspan><tspan font-size="72" x="435.333" y="0">enuti</tspan><tspan font-size="117" x="864" y="0">.</tspan></text></g></svg>