<svg width="376" height="53" xmlns="http://www.w3.org/2000/svg" xmlns:xlink="http://www.w3.org/1999/xlink" overflow="hidden"><defs><clipPath id="clip0"><rect x="265" y="191" width="376" height="53"/></clipPath><clipPath id="clip1"><rect x="266" y="192" width="374" height="51"/></clipPath><clipPath id="clip2"><rect x="266" y="192" width="374" height="51"/></clipPath></defs><g clip-path="url(#clip0)" transform="translate(-265 -191)"><g clip-path="url(#clip1)"><g clip-path="url(#clip2)"><path d="M69.402 262.542C67.585 262.381 65.666 262.288 64.554 261.323 66.517 261.216 68.004 261.618 69.402 262.542ZM69.438 262.563C69.445 262.558 69.458 262.554 69.466 262.55 69.441 262.549 69.423 262.545 69.402 262.542 69.416 262.552 69.427 262.554 69.438 262.563ZM421.902 219.364C421.448 219.383 420.931 219.402 420.407 219.424 420.907 219.453 421.417 219.456 421.902 219.364ZM157.429 265.337 157.706 263.739C162.016 263.716 158.961 265.568 162.945 265.173 164.504 262.912 169.564 265.407 170.941 264.206 170.91 264.386 172.861 264.454 172.737 265.162 173.334 263.934 174.744 264.877 175.974 264.563 176.42 264.222 175.647 264.196 175.313 263.826L178.132 263.392C179.234 263.787 179.506 264.509 178.308 264.643 185.675 265.083 221.042 266.259 228.978 265.646 227.958 264.719 225.508 265.345 224.577 263.887 226.675 263.07 227.666 264.173 228.591 263.314 229.396 265.482 233.202 263.833 234.79 266.03L235.392 264.801 236.435 265.553C245.662 264.274 238.543 264.929 246.723 265.219 251.457 265.03 253.707 263.325 256.341 263.953 255.95 263.94 254.906 263.188 256.132 262.874 256.341 263.953 259.397 262.1 259.994 263.189 261.195 263.053 265.087 263.192 263.77 261.717 264.431 262.453 267.903 262.755 265.836 263.394 267.007 263.437 268.142 263.654 268.985 263.329L267.481 262.918C271.437 262.704 273.592 263.846 276.169 262.511L274.707 261.925C277.072 261.832 279.05 261.721 279.978 263.18L277.55 263.629C281.472 263.591 283.838 263.496 287.107 262.719L285.94 262.679C290.105 261.221 311.892 260.017 315.729 258.192L313.962 257.059 317.262 256.105C316.871 256.091 315.669 259.783 315.342 259.414 322.413 259.309 359.197 258.43 365.728 259.193 368.363 259.821 366.202 260.992 366.172 261.171 369.379 260.748 367.555 259.97 370.282 260.067 371.026 260.271 370.128 260.955 369.709 261.117 370.904 260.983 372.012 261.375 372.103 260.846 370.609 260.435 371.241 259.031 370.609 258.118L374.116 258.24 373.96 259.127C374.742 259.154 375.943 256.701 379.388 257.178 385.2 257.562 391.513 257.251 397.358 257.456 397.267 257.988 396.04 258.302 394.81 258.614 395.594 258.641 396.788 258.505 397.51 258.887 396.098 257.947 399.963 258.261 398.859 257.865 403.14 255.697 408.678 257.677 412.457 256.205 412.787 254.255 420.548 222.704 420.548 220.385 421.721 220.427 422.888 220.469 423.247 220.66 422.944 220.115 420.638 219.854 419.413 220.166L419.202 221.409C416.382 221.845 418.541 220.671 415.789 220.755 415.642 219.738 418.175 219.521 420.406 219.423 418.397 219.305 416.397 218.564 415.579 219.677 413.691 219.254 415.789 218.434 413.515 217.999 411.896 218.298 409.768 219.293 407.908 218.692L407.941 218.513C403.418 217.463 401.021 220.055 396.889 219.017L397.334 218.677C395.873 218.089 392.997 218.879 390.362 218.252 391.114 218.457 391.767 219.193 390.183 219.314 387.153 218.673 385.086 219.314 382.871 218.522L380.745 219.518C370.196 219.324 328.529 220.739 317.932 220.898L318.347 220.739C302.201 221.237 269.058 221.159 252.371 222.531 249.79 221.551 246.231 221.781 243.538 221.507 245.035 221.916 244.522 222.611 243.353 222.571 235.149 222.458 242.799 223.249 234.502 223.668 224.948 224.58 188.387 223.542 179.906 222.707 175.351 224.152 169.664 223.059 165.201 223.973L165.65 223.632C160.857 224.176 133.724 222.837 128.153 223.354L128.902 223.561C124.044 224.458 124.706 222.877 120.878 222.385 121.381 224.006 117.218 224.927 115.631 225.049L115.691 224.694C113.297 224.967 107.874 226.375 103.921 226.593L104.076 225.706C100.779 226.659 94.58 226.263 92.21 226.356 86.791 225.989 78.433 224.445 71.187 225.617L66.506 223.089 65.821 223.34C65.821 223.34 58.282 253.867 67.852 260.369L67.7 261.254 69.592 261.14C71.862 261.576 72.912 260.55 72.758 261.433L69.648 261.325C71.929 261.581 70.336 262.051 69.466 262.552 70.418 262.637 71.343 262.744 72.101 263.015 72.55 262.675 71.771 262.648 71.416 262.455 72.643 262.143 74.352 261.311 75.846 261.719 78.182 261.802 75.995 263.153 78.721 263.249 93.096 263.934 107.024 264.96 121.553 264.76 121.883 265.127 121.49 265.114 121.07 265.279 125.447 264.897 129.338 265.035 133.323 264.639 134.43 265.035 134.732 265.581 135.06 265.949 134.401 265.213 157.07 265.146 157.429 265.337Z" fill="#FFFFFF" transform="matrix(1.00001 0 0 1 205.999 -25.0032)"/></g></g></g></svg>