<svg width="1168" height="298" xmlns="http://www.w3.org/2000/svg" xmlns:xlink="http://www.w3.org/1999/xlink" overflow="hidden"><defs><clipPath id="clip0"><rect x="56" y="92" width="1168" height="298"/></clipPath></defs><g clip-path="url(#clip0)" transform="translate(-56 -92)"><path d="M60.5001 96.5001C69.8938 96.1279 83.9367 94.8051 98.1676 96.5001 112.398 98.195 124.493 97.0271 135.835 96.5001 147.177 95.973 182.008 94.3663 196.683 96.5001 211.357 98.6338 240.505 94.7973 257.53 96.5001 274.556 98.2028 297.217 98.5512 318.378 96.5001 339.538 94.4489 381.046 95.1093 402.405 96.5001 423.764 97.8908 425.526 95.6498 440.073 96.5001 454.619 97.3503 477.159 96.9273 512.51 96.5001 547.861 96.0728 537.635 96.7965 561.768 96.5001 585.9 96.2036 618.709 98.2522 634.205 96.5001 649.701 94.7479 653.585 97.879 671.873 96.5001 690.16 95.1211 716.401 96.4181 755.9 96.5001 795.4 96.582 810.853 94.2982 828.338 96.5001 845.822 98.7019 851.593 95.2268 866.005 96.5001 880.417 97.7733 909.602 98.6442 950.033 96.5001 990.463 94.3559 1022.88 94.8123 1045.65 96.5001 1068.42 98.1878 1101.6 97.8646 1118.09 96.5001 1134.58 95.1355 1192.46 98.4287 1219.5 96.5001 1221.61 129.569 1216.1 148.793 1219.5 165.86 1222.9 182.927 1222.42 210.857 1219.5 238.11 1216.58 265.363 1220.54 284.89 1219.5 301.69 1218.46 318.49 1216.92 366.78 1219.5 385.5 1182.15 384.43 1152.96 388.287 1135.47 385.5 1117.98 382.713 1086.8 382.864 1063.04 385.5 1039.27 388.136 1024.67 385.021 1013.78 385.5 1002.89 385.979 956.805 387.471 941.34 385.5 925.875 383.529 874.675 385.336 857.312 385.5 839.95 385.665 824.837 386.98 796.465 385.5 768.093 384.02 759.849 383.622 747.208 385.5 734.566 387.378 719.079 385.329 709.54 385.5 700.001 385.671 683.566 386.606 660.283 385.5 636.999 384.395 614.252 384.126 599.435 385.5 584.618 386.874 533.609 387.211 515.408 385.5 497.206 383.789 447.018 381.661 419.79 385.5 392.562 389.339 373.058 382.663 358.943 385.5 344.828 388.337 310.241 388.751 286.505 385.5 262.769 382.249 228.747 386.928 202.478 385.5 176.208 384.072 177.592 384.325 153.22 385.5 128.848 386.675 82.9274 382.735 60.5001 385.5 57.5272 354.166 57.3425 345.149 60.5001 321.92 63.6576 298.692 61.4007 289.161 60.5001 258.34 59.5994 227.519 60.3089 207.431 60.5001 183.2 60.6912 158.969 61.977 116.998 60.5001 96.5001Z" stroke="#F2CC7D" stroke-width="3" stroke-miterlimit="8" fill="none" fill-rule="evenodd"/></g></svg>