<svg width="1172" height="303" xmlns="http://www.w3.org/2000/svg" xmlns:xlink="http://www.w3.org/1999/xlink" overflow="hidden"><defs><clipPath id="clip0"><rect x="55" y="89" width="1172" height="303"/></clipPath></defs><g clip-path="url(#clip0)" transform="translate(-55 -89)"><path d="M60 96C69.3937 95.6278 83.4366 94.3051 97.6675 96 111.898 97.6949 123.993 96.5271 135.335 96 146.677 95.4729 181.508 93.8663 196.182 96 210.857 98.1337 240.005 94.2972 257.03 96 274.056 97.7028 296.717 98.0511 317.877 96 339.038 93.9489 380.546 94.6092 401.905 96 423.264 97.3908 425.026 95.1497 439.572 96 454.119 96.8503 476.659 96.4273 512.01 96 547.361 95.5727 537.135 96.2965 561.267 96 585.4 95.7035 618.209 97.7521 633.705 96 649.201 94.2479 653.085 97.3789 671.372 96 689.66 94.6211 715.9 95.918 755.4 96 794.899 96.082 810.353 93.7981 827.837 96 845.322 98.2019 851.093 94.7267 865.505 96 879.917 97.2733 909.102 98.1441 949.532 96 989.963 93.8559 1022.38 94.3122 1045.15 96 1067.92 97.6878 1101.1 97.3646 1117.59 96 1134.08 94.6354 1191.96 97.9286 1219 96 1221.11 129.069 1215.6 148.293 1219 165.36 1222.4 182.427 1221.92 210.357 1219 237.61 1216.08 264.863 1220.04 284.39 1219 301.19 1217.96 317.99 1216.42 366.28 1219 385 1181.65 383.93 1152.46 387.787 1134.97 385 1117.48 382.213 1086.3 382.364 1062.53 385 1038.77 387.636 1024.17 384.521 1013.28 385 1002.38 385.479 956.305 386.971 940.84 385 925.375 383.029 874.175 384.835 856.812 385 839.45 385.165 824.337 386.48 795.965 385 767.593 383.52 759.349 383.122 746.707 385 734.066 386.878 718.579 384.829 709.04 385 699.501 385.171 683.066 386.105 659.782 385 636.499 383.895 613.752 383.626 598.935 385 584.118 386.374 533.109 386.711 514.907 385 496.706 383.289 446.518 381.161 419.29 385 392.062 388.839 372.558 382.163 358.443 385 344.327 387.837 309.741 388.251 286.005 385 262.269 381.749 228.247 386.428 201.978 385 175.708 383.572 177.092 383.825 152.72 385 128.348 386.175 82.4273 382.235 60 385 57.0272 353.666 56.8424 344.648 60 321.42 63.1576 298.192 60.9007 288.661 60 257.84 59.0993 227.019 59.8088 206.931 60 182.7 60.1912 158.469 61.477 116.498 60 96Z" fill="#F2CC7D" fill-rule="evenodd"/><path d="M60 96C87.604 97.3008 121.832 91.294 155.618 96 189.403 100.706 195.753 96.2115 216.465 96 237.177 95.7885 292.547 100.36 312.083 96 331.618 91.64 359.45 96.668 384.52 96 409.59 95.332 422.776 97.8332 456.957 96 491.139 94.1668 495.882 95.3337 529.395 96 562.908 96.6663 556.729 97.5228 567.062 96 577.396 94.4772 618.252 94.5001 639.5 96 660.748 97.4999 662.9 97.4783 677.167 96 691.434 94.5217 752.284 93.3739 772.785 96 793.286 98.6261 808.643 94.6612 822.042 96 835.443 97.3388 857.411 96.2337 871.3 96 885.188 95.7663 925.321 98.8776 943.737 96 962.154 93.1224 985.702 98.5956 1004.58 96 1023.47 93.4044 1057.6 98.7771 1100.2 96 1142.8 93.2229 1186.91 96.793 1219 96 1218.65 126.846 1219.44 141.096 1219 159.58 1218.56 178.064 1216.58 204.499 1219 234.72 1221.42 264.941 1216.08 271.232 1219 301.19 1221.92 331.148 1222.34 359.503 1219 385 1186.54 386.364 1152.32 389.394 1123.38 385 1094.45 380.606 1093.56 385.831 1085.71 385 1077.87 384.169 1035.81 387.753 1013.28 385 990.745 382.247 945.052 389.772 917.66 385 890.268 380.228 855.058 381.045 822.042 385 789.027 388.955 764.791 384.145 738.015 385 711.239 385.855 674.73 385.598 653.987 385 633.245 384.402 632.063 383.402 616.32 385 600.577 386.598 575.367 385.488 543.883 385 512.398 384.512 511.135 385.638 494.625 385 478.115 384.362 460.765 386.355 445.367 385 429.97 383.645 408.473 384.185 396.11 385 383.747 385.815 361.892 384.913 346.852 385 331.813 385.087 319.689 385.105 309.185 385 298.681 384.895 284.4 385.908 259.927 385 235.455 384.092 196.801 381.245 175.9 385 154.999 388.755 152.028 386.706 138.233 385 124.437 383.294 81.506 381.106 60 385 62.9706 370.443 57.8633 347.974 60 312.75 62.1367 277.526 58.0598 259.676 60 240.5 61.9402 221.324 60.5388 201.91 60 171.14 59.4612 140.37 63.3607 118.628 60 96Z" stroke="#F2CC7D" stroke-width="8" stroke-miterlimit="8" fill="none" fill-rule="evenodd"/></g></svg>