<svg width="852" height="568" xmlns="http://www.w3.org/2000/svg" xmlns:xlink="http://www.w3.org/1999/xlink" overflow="hidden"><defs><clipPath id="clip0"><rect x="214" y="76" width="852" height="568"/></clipPath><clipPath id="clip1"><rect x="215" y="77" width="850" height="566"/></clipPath><clipPath id="clip2"><rect x="215" y="77" width="850" height="566"/></clipPath><clipPath id="clip3"><rect x="215" y="-65" width="850" height="850"/></clipPath></defs><g clip-path="url(#clip0)" transform="translate(-214 -76)"><g clip-path="url(#clip1)"><g clip-path="url(#clip2)"><g clip-path="url(#clip3)"><path d="M237.478 498.322C237.126 498.915 236.513 499.088 235.801 499.102 235.971 498.104 236.905 497.39 237.478 498.322Z" fill="#F2CC7D" fill-rule="evenodd" transform="matrix(1.00117 0 0 1 215 -64.5042)"/><path d="M212.1 380.501C211.591 381.016 209.993 382.017 210.165 379.997 211.071 379.79 211.449 380.338 212.1 380.501Z" fill="#F2CC7D" fill-rule="evenodd" transform="matrix(1.00117 0 0 1 215 -64.5042)"/><path d="M209.371 377.842C209.236 378.787 208.005 377.956 207.427 378.182 207.453 376.954 209.01 377.246 209.371 377.842Z" fill="#F2CC7D" fill-rule="evenodd" transform="matrix(1.00117 0 0 1 215 -64.5042)"/><path d="M201.578 395.779C201.174 396.418 200.12 396.927 199.63 396.128 199.765 395.183 200.996 396.009 201.578 395.779Z" fill="#F2CC7D" fill-rule="evenodd" transform="matrix(1.00117 0 0 1 215 -64.5042)"/><path d="M198.022 376.947C197.356 378.051 196.224 378.403 194.676 378.09 195.217 376.785 196.823 377.195 198.022 376.947Z" fill="#F2CC7D" fill-rule="evenodd" transform="matrix(1.00117 0 0 1 215 -64.5042)"/><path d="M188.361 469.553C186.665 469.647 183.197 471.286 181.989 469.293 184.054 470.54 186.432 468.518 188.361 469.553Z" fill="#F2CC7D" fill-rule="evenodd" transform="matrix(1.00117 0 0 1 215 -64.5042)"/><path d="M183.807 429.022C181.688 431.509 177.899 428.725 175.188 430.369 174.804 428.289 179.157 430.101 179.937 428.442 180.582 428.606 181.067 428.995 181.583 429.356 182.332 429.202 183.03 427.824 183.807 429.022Z" fill="#F2CC7D" fill-rule="evenodd" transform="matrix(1.00117 0 0 1 215 -64.5042)"/><path d="M157.855 422.863C157.914 423.977 157.719 424.679 156.994 424.522 156.787 424.14 156.715 423.556 156.75 422.815 157.12 422.836 157.486 422.847 157.855 422.863Z" fill="#F2CC7D" fill-rule="evenodd" transform="matrix(1.00117 0 0 1 215 -64.5042)"/><path d="M147.071 437.28C145.363 439.192 141.452 439.314 139.301 437.809 139.013 438.074 138.995 438.778 138.454 438.624 137.164 438.854 134.281 438.071 137.078 438.145 140.536 436.82 143.268 438.157 147.071 437.28Z" fill="#F2CC7D" fill-rule="evenodd" transform="matrix(1.00117 0 0 1 215 -64.5042)"/><path d="M145.777 415.993C145.366 416.631 144.68 416.84 143.824 416.766 144.031 415.735 145.456 415.533 145.777 415.993Z" fill="#F2CC7D" fill-rule="evenodd" transform="matrix(1.00117 0 0 1 215 -64.5042)"/><path d="M143.143 471.52C142.832 472.471 141.402 471.605 140.644 471.84 141.194 471.27 142.526 470.648 143.143 471.52Z" fill="#F2CC7D" fill-rule="evenodd" transform="matrix(1.00117 0 0 1 215 -64.5042)"/><path d="M143.711 423.126C143.03 424.205 141.487 423.898 140.635 424.704 139.878 423.024 142.656 423.328 143.711 423.126Z" fill="#F2CC7D" fill-rule="evenodd" transform="matrix(1.00117 0 0 1 215 -64.5042)"/><path d="M142.435 417.13C141.889 418.436 140.285 418.022 139.084 418.271 139.796 417.235 141.348 417.557 142.435 417.13Z" fill="#F2CC7D" fill-rule="evenodd" transform="matrix(1.00117 0 0 1 215 -64.5042)"/><path d="M140.474 481.6C140.375 483.04 139.283 482.877 138.503 483.215 138.67 481.883 139.786 482.094 140.474 481.6Z" fill="#F2CC7D" fill-rule="evenodd" transform="matrix(1.00117 0 0 1 215 -64.5042)"/><path d="M139.264 471.361C138.357 472.549 135.251 472.194 133.712 471.976 135.661 470.996 137.14 471.085 139.264 471.361Z" fill="#F2CC7D" fill-rule="evenodd" transform="matrix(1.00117 0 0 1 215 -64.5042)"/><path d="M138.533 418.25C137.104 420.192 135.021 418.657 133.816 418.476 135.132 417.346 137.037 419.415 138.533 418.25Z" fill="#F2CC7D" fill-rule="evenodd" transform="matrix(1.00117 0 0 1 215 -64.5042)"/><path d="M134.858 438.055C134.317 438.776 133.397 438.893 132.62 439.24 132.467 437.39 133.924 438.149 134.858 438.055Z" fill="#F2CC7D" fill-rule="evenodd" transform="matrix(1.00117 0 0 1 215 -64.5042)"/><path d="M132.44 433.705C131.782 434.758 131.195 434.268 130.217 434.038 130.443 433.09 131.773 433.941 132.44 433.705Z" fill="#F2CC7D" fill-rule="evenodd" transform="matrix(1.00117 0 0 1 215 -64.5042)"/><path d="M130.036 428.518C129.73 429.63 127.65 429.848 128.11 427.585 128.706 427.412 128.628 428.212 128.642 428.884 129.311 429.084 129.26 428.13 130.036 428.518Z" fill="#F2CC7D" fill-rule="evenodd" transform="matrix(1.00117 0 0 1 215 -64.5042)"/><path d="M124.199 460.971C125.57 459.236 127.921 461.869 124.199 460.971L124.199 460.971Z" fill="#F2CC7D" fill-rule="evenodd" transform="matrix(1.00117 0 0 1 215 -64.5042)"/><path d="M121.155 476.561C120.013 477.426 118.886 477.183 117.547 476.837 118.391 476.278 120.589 476.188 121.155 476.561Z" fill="#F2CC7D" fill-rule="evenodd" transform="matrix(1.00117 0 0 1 215 -64.5042)"/><path d="M120.28 479.071C120.681 480.392 118.449 480.302 118.895 479.018 119.355 479.034 119.815 479.051 120.28 479.071Z" fill="#F2CC7D" fill-rule="evenodd" transform="matrix(1.00117 0 0 1 215 -64.5042)"/><path d="M117.669 501.47C117.276 502.342 116.401 502.54 115.716 502.245 115.918 501.203 117.352 501.005 117.669 501.47Z" fill="#F2CC7D" fill-rule="evenodd" transform="matrix(1.00117 0 0 1 215 -64.5042)"/><path d="M109.943 499.452C107.633 501.403 106.821 499.394 109.943 499.452L109.943 499.452Z" fill="#F2CC7D" fill-rule="evenodd" transform="matrix(1.00117 0 0 1 215 -64.5042)"/><path d="M172.301 500.317C171.841 500.887 171.195 501.15 170.884 501.957 170.028 500.245 168.457 501.764 167.299 500.963 168.716 499.093 170.24 501.483 172.301 500.317Z" fill="#F2CC7D" fill-rule="evenodd" transform="matrix(1.00117 0 0 1 215 -64.5042)"/><path d="M141.339 463.803C140.667 463.948 140.748 463.001 139.963 463.32 139.895 462.628 140.233 462.6 140.26 462.053 138.875 461.719 138.109 462.363 136.927 462.345 137.081 462.007 137.23 461.666 137.23 461.086 135.664 463.369 133.843 459.745 130.581 460.812 133.703 458.382 140.622 460.194 143.35 459.637 142.945 461.307 140.55 459.761 140.27 461.634 140.203 462.97 141.807 461.875 141.339 463.803Z" fill="#F2CC7D" fill-rule="evenodd" transform="matrix(1.00117 0 0 1 215 -64.5042)"/><path d="M138.434 423.763C138.12 423.83 138.272 424.181 138.429 424.188 138.339 425.178 137.207 424.379 137.041 424.131 137.378 422.934 141.04 423.616 138.434 423.763Z" fill="#F2CC7D" fill-rule="evenodd" transform="matrix(1.00117 0 0 1 215 -64.5042)"/><path d="M117.841 428.442C117.848 427.874 117.858 427.306 117.867 426.742 116.095 426.832 113.258 427.216 112.067 425.649 114.165 424.455 118.619 427.403 120.122 424.713 120.478 425.162 121.138 425.166 121.493 425.615 126.382 422.944 131.687 425.818 136.765 424.12 134.486 428.636 129.323 422.452 126.734 427.104 126.309 426.864 126.725 426.664 127.019 426.696 124.772 426.754 120.734 425.723 117.841 428.442Z" fill="#F2CC7D" fill-rule="evenodd" transform="matrix(1.00117 0 0 1 215 -64.5042)"/><path d="M119.666 482.444C119.233 483.203 118.453 483.387 117.975 484.075 117.722 483.991 119.104 481.289 119.666 482.444Z" fill="#F2CC7D" fill-rule="evenodd" transform="matrix(1.00117 0 0 1 215 -64.5042)"/><path d="M674.369 513.3C675.611 513.316 676.975 511.766 678.276 511.759 681.326 511.742 684.06 513.39 687.134 512.546 689.848 511.807 692.407 509.541 695.235 509.057 697.333 508.699 698.018 508.061 699.42 507.528 703.524 505.981 706.885 506.77 708.657 502.392 711.529 499.5 715.138 497.807 717.654 495.121 718.049 494.693 718.894 494.914 719.048 494.749 725.451 487.994 729.371 476.969 736.908 472.128 737.564 469.633 738.004 466.01 739.287 462.885 739.856 461.487 741.156 460.578 741.57 459.153 743.104 453.86 741.756 447.134 744.619 443.145 744.777 441.815 744.253 441.465 744.112 440.574 744.195 430.021 743.059 421.131 743.762 412.958 741.795 408.129 742.223 402.531 740.7 397.967 739.753 395.13 737.896 392.454 736.686 389.736 735.301 386.628 733.835 384.235 732.678 381.079 732.691 377.89 730.918 377.292 730.575 374.62 728.419 372.648 726.785 369.92 724.593 368.006 724.383 366.938 723.863 366.303 723.813 365.001 719.209 359.573 714.563 352.867 708.262 350.771 707.696 350.587 706.483 350.228 705.777 350.246 701.102 350.35 693.9 349.243 691.456 344.986 690.612 344.644 690.626 345.686 689.788 345.343 689.255 343.314 686.775 339.49 684.619 339.609 683.878 339.648 682.583 342.37 680.96 342.856 678.54 343.58 676.251 339.899 674.07 340.451 673.069 340.705 672.01 343.164 670.964 343.721 668.24 345.175 662.722 344.149 660.438 343.29 658.636 342.61 657.962 340.594 656.598 341.006 655.364 341.383 654.433 343.594 654.554 346.87 651.013 354.052 641.9 348.497 636.45 351.643 632.446 349.068 628.62 353.338 624.787 352.864 624.02 352.763 623.1 351.886 622.311 351.914 620.998 351.953 619.249 353.329 617.562 353.842 614.675 354.719 612.144 354.525 609.772 355.646 606.1 351.417 603.413 356.295 600.337 356.106 599.182 356.037 598.05 354.677 596.756 354.686 595.664 354.689 594.612 355.917 593.413 355.821 592.222 355.735 590.982 354.38 589.831 354.404 588.975 354.42 588.297 355.252 587.599 355.16 586.679 355.041 586.097 354.026 585.123 354.208 584.098 354.404 583.071 356.023 582.038 356.207 578.263 356.881 574.19 355.135 570.636 358.287 564.2 355.63 558.595 359.877 550.976 357.054 549.077 357.91 547.685 358.526 545.7 357.684 545.258 357.993 545.263 359.014 544.568 358.915 540.608 357.661 536.441 361.221 532.358 359.686 532.215 360.183 532.049 360.636 531.782 360.937 526.15 358.902 519.018 358.623 514.595 361.078 511.163 358.952 507.171 361.386 502.946 361.451 500.956 361.481 498.999 360.321 497.137 360.786 493.491 361.701 488.716 360.588 485.21 361.145 484.165 361.313 483.15 362.523 482.129 362.719 480.277 363.078 478.292 361.856 476.317 362.479 468.704 364.881 459.957 363.22 453.293 363.234 451.232 363.238 449.472 364.612 447.164 365.104 443.343 365.921 439.374 363.646 435.536 364.2 434.57 364.341 433.633 365.185 432.745 365.362 430.446 365.813 428.252 364.998 425.822 365.077 419.886 365.272 413.929 367.622 408.345 365.634 401.215 368.424 390.815 367.52 382.524 367.971 380.662 370.286 378.889 368.295 376.97 368.588 371.045 369.503 363.464 372.126 357.257 370.33 331.158 374.425 303.956 372.632 278.13 377.268 276.11 375.513 272.97 376.634 271.193 377.835 270.809 376.73 269.624 376.797 268.72 376.457 265.483 379.28 261.413 376.997 257.333 377.685 256.294 380.442 253.838 378.364 252.295 380.453 251.637 378.939 253.183 379.155 252.056 378.322 249.414 383.317 240.469 380.985 236.459 382.351 236.739 382.365 236.797 383.11 236.445 383.202 235.476 381.955 235.016 384.442 233.928 384.367 226.645 384.928 221.444 389.858 215.227 391.669 214.449 390.967 212.364 388.833 211.642 390.673 212.765 390.972 214.191 390.829 214.095 392.898 212.227 392.221 209.771 393.148 208.52 394.791 206.21 394.982 205.028 393.878 202.964 395.413 202.458 395.38 203.456 397.568 202.374 397.511 199.14 396.418 197.511 398.238 194.621 397.191 193.777 399.147 190.372 399.726 189.325 398.671 188.381 399.522 190.367 400.313 189.564 400.805 186.938 401.42 184.495 402.243 182.077 400.923 181.477 401.845 181.079 403.097 180.092 403.389 179.426 403.53 180.282 401.464 179.286 402.085 178.352 403.196 180.011 404.038 179.783 405.501 178.469 406.196 178.727 407.23 178.069 408.405 176.238 407.245 174.984 409.624 173.32 410.333 171.606 411.069 169.699 410.344 168.044 410.966 166.623 411.499 166.015 412.97 164.403 412.935 163.096 412.912 162 411.387 160.548 411.506 159.78 411.856 161.062 413.089 159.966 413.177 154.879 413.685 149.793 414.196 146.038 416.851 151.803 413.534 156.005 417.072 161.057 414.076 161.821 415.982 163.326 412.894 164.085 415.473 164.426 414.373 163.259 413.61 164.391 413.784 164.766 413.936 164.909 414.413 165.491 414.258 164.773 416.529 165.843 416.529 166.257 418.112 170.555 417.985 173.919 416.927 177.641 416.879 178.331 416.343 177.163 415.586 177.947 415.195 179.364 414.815 180.446 415.147 182.119 414.516 182.62 416.202 183.743 417.029 183.144 419.23 178.129 419.074 171.309 422.394 165.343 422.748 163.533 422.852 161.658 421.137 160.611 423.827 163.291 423.001 165.451 425.971 167.778 426.241 170.79 426.586 174.011 423.915 176.956 424.495 177.786 424.66 178.129 425.429 178.877 425.42 179.463 425.42 180.46 424.161 181.118 424.237 181.835 424.326 181.875 425.238 182.489 425.143 183.747 424.952 184.718 423.547 186.115 423.595 188.452 423.682 190.742 425.274 193.305 424.738 193.774 425.497 193.567 427.375 192.976 427.699 189.941 427.589 189.423 427.695 186.318 427.849 186.665 428.038 186.877 428.42 186.851 429.147 185.894 429.02 185.556 428.488 184.902 429.492 187.206 429.409 186.999 432.694 186.211 434.218 180.485 433.642 173.463 435.145 168.748 433.925 168.229 434.827 167.895 436.026 167.042 436.399 161.738 437.466 155.798 436.376 150.115 437.4 156.601 439.931 163.376 438.426 170.907 437.409 171.195 437.812 170.964 438.976 171.714 438.716 174.926 437.519 178.669 437.835 181.161 437.406 182.272 439.236 183.349 441.12 184.391 443.057 192.293 441.514 198.065 449.009 205.63 449.028 205.594 450.318 206.185 450.7 206.415 451.607 205.807 452.659 205.4 454.032 204.696 454.936 203.456 455.014 202.184 455.705 201.093 454.786 194.72 458.581 185.673 455.88 177.749 458.07 176.783 460.184 177.542 461.808 178.209 463.612 182.027 464.836 185.515 461.871 189.557 464.505 191.004 469.514 189.485 473.007 186.357 473.29 181.18 473.756 172.255 473.259 168.903 472.572 153.717 475.539 138.654 474.315 123.09 476.637 131.74 477.594 139.74 474.93 147.483 476.789 147.453 475.866 147.736 475.448 148.338 475.553 155.954 476.062 164.407 475.997 171.091 474.362 173.891 477.422 179.3 473.828 182.132 476.939 181.424 481.759 179.097 483.963 176.169 485.184 179.16 484.904 181.946 486.496 184.454 486.798 186.511 487.046 190.07 485.596 191.112 486.648 191.363 486.905 190.88 487.888 191.363 487.934 190.521 487.858 192.866 487.663 193.038 487.58 194.161 487.021 193.954 486.669 195.267 486.82 196.972 487.016 196.938 487.085 198.014 488.208 203.9 488.972 209.61 487.485 215.473 488.5 216.082 488.604 217.318 488.53 217.413 488.58 217.969 488.882 217.495 489.722 218.225 489.883 218.641 489.977 218.455 488.962 219.069 489.071 221.356 489.471 223.972 489.896 226.263 489.791 231.992 489.529 238.764 490.704 243.437 490.493 244.477 490.803 243.108 492.257 244.514 492.241 252.559 493.279 261.081 494.098 269.7 494.549 270.349 494.705 269.831 496.564 270.782 496.291 271.969 496.61 271.679 494.546 272.749 494.673 273.413 495.227 274.021 495.862 274.373 496.861 284.246 498.432 294.42 496.698 304.605 495.98 314.094 495.312 323.61 495.356 332.622 495.006 339.725 494.73 346.514 492.926 352.869 494.141 361.393 492.711 368.758 492.803 376.737 492.572 382.487 492.411 388.819 493.394 393.65 492.42 394.483 492.248 395.472 491.268 396.446 491.261 397.913 491.247 399.389 492.697 400.852 492.713 404.807 492.761 408.858 491.001 412.8 491.081 417.224 491.171 421.478 491.463 425.822 491.615 428.272 491.703 430.626 490.325 433.056 490.218 434.666 490.143 436.353 491.296 438.026 491.268 442.712 491.197 447.481 489.331 451.913 489.719 457.835 490.228 463.919 492.084 469.926 490.032 476.561 491.158 484.63 491.226 490.983 490.47 496.136 493.852 501.499 490.37 507.329 491.144 507.946 491.226 508.353 491.882 508.974 492.066 517.796 494.581 527.593 490.049 534.75 492.271 537.433 490.049 539.729 492.497 542.223 493.003 544.915 493.552 547.409 492.092 550.004 492.05 550.851 492.032 551.622 492.892 552.48 492.993 555.099 493.322 557.657 491.908 560.544 491.633 564.856 491.22 569.442 494.882 574.386 492.625 578.201 494.206 583.858 496.04 588.223 494.04 595.606 497.238 603.07 493.522 610.656 494.961 613.218 495.448 615.545 497.706 618.129 495.692 620.804 497.975 623.997 496.645 627.258 496.919 630.479 497.185 633.834 498.511 637.199 499.024 641.997 499.757 647.958 497.931 651.55 502.588 653.188 512.249 656.367 498.046 660.189 499.972 662.216 501.925 661.951 504.642 662.819 508.142 664.63 509.593 666.33 508.71 668.09 507.935 670.144 508.887 671.638 513.254 674.369 513.3ZM189.143 409.286C189.198 408.794 189.094 408.527 188.876 408.426 189.472 406.387 190.776 409.364 189.143 409.286ZM188.568 410.11C186.264 410.287 183.027 412.197 181.352 410.664 180.902 410.651 181.755 413.08 181.025 413.621 180.041 412.57 178.877 411.778 177.177 411.764 177.07 408.244 180.434 410.338 180.582 407.232 181.881 407.524 182.517 407.685 183.099 406.065 185.76 407.243 186.352 405.078 188.363 406.284 187.831 408.301 188.722 407.827 188.568 410.11Z" fill="#F2CC7D" fill-rule="evenodd" transform="matrix(1.00117 0 0 1 215 -64.5042)"/></g></g></g></g></svg>